<svg xmlns="http://www.w3.org/2000/svg" width="463" height="69" fill="none">
  <path fill="#fff" d="M44.576 8c-6.784 0-12.992 2.688-17.344 7.168C22.816 19.584 20 25.664 20 32.448c0 6.784 2.816 12.864 7.232 17.28 4.352 4.48 10.56 7.168 17.344 7.168a24.226 24.226 0 0 0 16.256-6.208l-3.392-2.752a19.882 19.882 0 0 1-12.864 4.736c-5.632 0-10.688-2.24-14.336-5.888-3.648-3.648-5.888-8.768-5.888-14.336s2.24-10.688 5.888-14.336c3.648-3.584 8.704-5.824 14.336-5.824 4.864 0 9.408 1.728 12.864 4.672l3.392-2.816A24.488 24.488 0 0 0 44.576 8ZM118.619 13.248v43.2h31.552v-3.84h-27.328v-39.36h-4.224ZM212.472 56.512v-37.12l32.512 37.12h4.288V13.184h-4.288v36.864l-32.512-36.864h-4.352v43.328h4.352ZM253.117 13.248l15.488 22.464v20.736h4.224V35.712l15.424-22.464h-4.991l-12.609 18.496-12.544-18.496h-4.992Z"/>
  <path fill="#D4AB3D" d="M296.719 56.512V16.704c6.72 11.008 13.504 22.144 20.16 33.088h2.496c6.848-10.944 13.44-22.08 20.224-33.088v39.808h4.353V8.384h-4.353l-21.504 35.2-21.376-35.2h-4.479v48.128h4.479ZM406.285 56.512v-37.12l32.512 37.12h4.288V13.184h-4.288v36.864l-32.512-36.864h-4.352v43.328h4.352Z"/>
  <path stroke="#fff" stroke-width="4" d="M78.484 55.964 66.867 35.447l11.617-20.516h23.168l11.618 20.516-11.618 20.517H78.484ZM167.484 55.964l-11.617-20.517 11.617-20.516h23.168l11.618 20.516-11.618 20.517h-23.168Z"/>
  <path stroke="#D4AB3D" stroke-width="4" d="m361.484 55.964-11.617-20.517 11.617-20.516h23.168l11.618 20.516-11.618 20.517h-23.168Z"/>
</svg>