 <svg  version="1.0" xmlns="http://www.w3.org/2000/svg"  width="900.000000pt" height="1041.000000pt" viewBox="0 0 900.000000 1041.000000"  preserveAspectRatio="xMidYMid meet">  <g transform="translate(0.000000,1041.000000) scale(0.100000,-0.100000)" fill="#5a3f2d" stroke="none"> <path d="M4442 10358 c-15 -15 -95 -63 -132 -78 -13 -6 -27 -14 -30 -18 -3 -4 -21 -15 -40 -26 -63 -33 -104 -57 -135 -77 -16 -10 -39 -23 -51 -28 -11 -5 -51 -28 -88 -50 -36 -23 -68 -41 -71 -41 -2 0 -23 -12 -47 -27 -74 -48 -82 -53 -104 -62 -19 -8 -134 -76 -174 -101 -8 -6 -26 -15 -40 -21 -13 -5 -27 -13 -30 -17 -3 -4 -21 -15 -40 -26 -63 -33 -105 -57 -135 -77 -16 -10 -37 -22 -45 -26 -8 -3 -59 -33 -113 -65 -54 -32 -101 -58 -106 -58 -4 0 -27 -13 -49 -30 -23 -16 -45 -30 -48 -30 -6 0 -135 -75 -174 -100 -8 -6 -27 -15 -42 -21 -16 -6 -28 -15 -28 -20 0 -5 -5 -9 -11 -9 -6 0 -45 -20 -86 -45 -40 -25 -76 -45 -78 -45 -2 0 -24 -13 -48 -30 -25 -16 -48 -30 -52 -30 -4 0 -44 -22 -89 -49 -141 -85 -150 -91 -176 -102 -13 -5 -27 -13 -30 -17 -3 -4 -21 -15 -40 -26 -63 -33 -104 -57 -135 -77 -16 -10 -39 -23 -50 -28 -18 -8 -237 -137 -275 -161 -8 -6 -24 -14 -36 -19 -19 -8 -134 -76 -174 -101 -8 -6 -26 -15 -40 -21 -13 -5 -27 -13 -30 -17 -3 -4 -21 -15 -40 -26 -63 -33 -104 -57 -135 -77 -16 -10 -39 -23 -50 -29 -11 -6 -33 -19 -50 -30 -16 -11 -39 -24 -51 -29 -19 -8 -136 -76 -174 -101 -8 -6 -26 -15 -40 -21 -13 -5 -27 -13 -30 -17 -3 -4 -16 -13 -30 -19 -14 -7 -47 -26 -75 -42 -27 -17 -61 -36 -75 -41 -13 -6 -27 -14 -30 -18 -3 -4 -21 -15 -40 -26 -63 -33 -104 -57 -135 -77 -16 -10 -39 -23 -50 -29 -11 -6 -33 -19 -50 -30 -16 -11 -39 -24 -51 -29 -19 -8 -136 -76 -174 -101 -8 -6 -25 -15 -38 -20 -13 -6 -30 -16 -38 -24 -21 -22 -21 -5180 0 -5202 8 -8 25 -18 38 -24 13 -5 30 -14 38 -20 40 -25 155 -93 174 -101 21 -9 29 -14 101 -59 22 -14 47 -29 55 -33 8 -4 38 -21 65 -37 28 -17 61 -36 75 -43 14 -6 27 -15 30 -19 3 -4 17 -12 30 -18 14 -5 48 -24 75 -41 28 -16 61 -35 75 -42 14 -6 27 -15 30 -19 3 -4 17 -12 30 -17 14 -6 32 -15 40 -21 38 -25 155 -93 174 -101 12 -5 35 -18 51 -29 17 -11 39 -24 50 -30 11 -6 34 -19 50 -29 31 -20 72 -44 135 -77 19 -11 37 -22 40 -26 3 -4 17 -12 30 -18 14 -5 48 -24 75 -41 28 -16 61 -35 75 -42 14 -6 27 -15 30 -19 3 -4 17 -12 30 -17 14 -6 32 -15 40 -21 38 -24 257 -153 275 -161 11 -5 34 -18 50 -28 31 -20 72 -44 135 -77 19 -11 37 -22 40 -26 3 -4 17 -12 30 -17 26 -11 35 -17 176 -102 45 -27 85 -49 89 -49 4 0 27 -14 52 -30 24 -17 46 -30 48 -30 2 0 38 -20 78 -45 41 -25 80 -45 86 -45 6 0 11 -4 11 -9 0 -5 12 -14 28 -20 15 -6 34 -15 42 -21 44 -29 169 -100 175 -100 5 0 16 -6 24 -14 14 -12 75 -48 167 -96 16 -9 44 -26 61 -38 17 -12 41 -26 54 -32 13 -6 38 -19 54 -29 31 -20 72 -44 135 -77 19 -11 37 -22 40 -26 3 -4 17 -12 30 -17 14 -6 32 -15 40 -21 40 -25 155 -93 174 -101 12 -5 28 -13 36 -19 38 -24 257 -153 275 -161 11 -5 34 -18 50 -28 31 -20 83 -50 145 -84 19 -10 49 -27 65 -38 17 -10 39 -23 50 -28 11 -5 37 -21 58 -35 48 -33 86 -33 134 0 21 14 47 30 58 35 11 5 34 18 50 28 17 11 46 28 65 38 62 34 114 64 145 84 17 10 39 23 51 28 11 5 51 28 88 50 36 23 68 41 71 41 2 0 23 12 47 28 75 47 82 52 108 63 13 5 27 13 30 17 3 4 16 13 30 19 14 7 48 26 75 43 28 16 62 35 78 41 15 6 27 15 27 20 0 5 5 9 11 9 10 0 124 64 179 100 8 6 22 13 30 17 8 3 59 33 113 65 54 32 101 58 106 58 4 0 27 13 49 30 23 16 45 30 48 30 6 0 135 75 174 100 8 6 27 15 43 21 15 6 27 15 27 20 0 5 5 9 11 9 6 0 67 34 136 75 68 41 127 75 130 75 3 0 42 22 87 49 141 85 150 91 176 102 13 5 27 13 30 17 3 4 21 15 40 26 63 33 104 57 135 77 17 10 39 23 50 28 18 8 237 137 275 161 8 6 26 15 40 21 13 5 27 13 30 17 3 4 16 13 30 19 14 7 48 26 75 42 28 17 61 36 75 41 13 6 27 14 30 18 3 4 21 15 40 26 63 33 104 57 135 77 17 10 39 23 50 29 11 6 34 19 50 30 17 11 39 24 51 29 19 8 136 76 174 101 8 6 26 15 40 21 13 5 27 13 30 17 3 4 16 13 30 19 14 7 48 26 75 42 28 17 61 36 75 41 13 6 27 14 30 18 3 4 16 13 30 19 14 7 48 26 75 43 28 16 57 33 65 37 8 4 33 19 55 33 72 45 80 50 101 59 19 8 137 77 174 101 8 6 27 15 43 21 15 6 27 15 27 20 0 5 9 9 20 9 20 0 20 7 20 2595 0 2588 0 2595 -20 2595 -11 0 -20 4 -20 9 0 5 -12 14 -27 20 -16 6 -35 15 -43 21 -37 24 -168 100 -173 100 -4 0 -23 12 -44 26 -21 14 -47 30 -58 35 -11 5 -33 18 -50 28 -31 20 -72 44 -135 77 -19 11 -37 22 -40 26 -3 4 -17 12 -30 18 -14 5 -47 24 -75 41 -27 16 -61 35 -75 42 -14 6 -27 15 -30 19 -3 4 -17 12 -30 17 -14 6 -32 15 -40 21 -38 25 -155 93 -174 101 -12 5 -34 18 -51 29 -16 11 -39 24 -50 30 -11 6 -33 19 -50 29 -31 20 -72 44 -135 77 -19 11 -37 22 -40 26 -3 4 -17 12 -30 17 -14 6 -32 15 -40 21 -40 25 -155 93 -174 101 -12 5 -28 13 -36 19 -38 24 -257 153 -275 161 -11 5 -33 18 -50 28 -31 20 -72 44 -135 77 -19 11 -37 22 -40 26 -3 4 -17 12 -30 17 -26 11 -35 17 -176 102 -45 27 -85 49 -89 49 -4 0 -27 14 -52 30 -24 17 -46 30 -48 30 -2 0 -38 20 -78 45 -41 25 -80 45 -86 45 -6 0 -11 4 -11 9 0 5 -12 14 -27 20 -16 6 -35 15 -43 21 -41 26 -168 100 -174 100 -4 0 -22 11 -40 25 -18 14 -36 25 -41 25 -4 0 -55 28 -114 63 -58 35 -113 67 -121 70 -8 4 -28 16 -45 26 -30 20 -72 44 -135 77 -19 11 -37 22 -40 26 -3 4 -17 12 -30 17 -14 6 -32 15 -40 21 -40 25 -155 93 -174 101 -12 5 -28 13 -36 19 -38 24 -257 153 -275 161 -11 5 -33 18 -50 28 -31 20 -72 44 -135 77 -19 11 -37 22 -40 26 -3 4 -17 12 -30 17 -26 11 -33 16 -108 64 -46 29 -100 35 -120 15z m115 -510 c55 -30 221 -127 253 -148 8 -6 24 -14 36 -19 11 -5 50 -27 85 -48 35 -22 71 -42 79 -46 8 -4 29 -16 45 -27 17 -11 44 -26 60 -34 43 -22 142 -80 210 -124 11 -6 27 -15 35 -19 16 -7 206 -117 230 -133 8 -6 24 -14 36 -19 11 -5 50 -27 85 -48 35 -22 71 -42 79 -46 8 -4 29 -16 45 -27 17 -11 39 -24 50 -29 11 -5 73 -41 138 -80 65 -39 120 -71 122 -71 3 0 49 -26 102 -58 54 -32 105 -61 113 -65 8 -4 29 -16 45 -26 17 -11 46 -28 65 -38 62 -34 114 -64 145 -84 17 -10 39 -23 50 -28 12 -5 61 -33 110 -63 50 -30 97 -57 105 -61 8 -4 29 -16 45 -27 17 -11 39 -24 51 -29 19 -9 138 -78 174 -101 8 -6 27 -15 43 -21 15 -6 27 -15 27 -20 0 -5 5 -9 11 -9 6 0 44 -19 83 -43 39 -24 78 -46 86 -50 8 -4 29 -16 45 -27 17 -11 39 -24 51 -29 11 -5 50 -27 85 -48 35 -22 71 -42 79 -46 8 -4 24 -13 35 -19 40 -26 101 -63 145 -86 74 -41 94 -52 125 -72 17 -11 39 -24 50 -29 12 -5 61 -33 110 -63 50 -30 97 -57 105 -61 8 -4 22 -11 30 -17 32 -21 222 -130 226 -130 3 0 18 -10 34 -22 l30 -22 0 -2342 0 -2342 -27 -18 c-34 -22 -99 -60 -133 -77 -14 -6 -30 -17 -37 -23 -7 -7 -32 -22 -55 -33 -24 -12 -50 -26 -58 -31 -64 -40 -208 -124 -225 -131 -11 -5 -33 -18 -50 -29 -16 -11 -37 -23 -45 -27 -8 -4 -44 -24 -79 -46 -35 -21 -74 -43 -85 -48 -12 -5 -34 -18 -51 -29 -32 -20 -55 -33 -127 -72 -26 -14 -60 -35 -76 -47 -16 -11 -40 -25 -53 -31 -13 -5 -31 -14 -39 -20 -38 -25 -155 -93 -174 -101 -12 -5 -34 -18 -51 -29 -16 -11 -37 -23 -45 -27 -8 -4 -44 -24 -79 -46 -35 -21 -74 -43 -85 -48 -12 -5 -28 -13 -36 -19 -38 -24 -206 -123 -225 -131 -11 -5 -33 -18 -50 -29 -16 -11 -39 -24 -50 -30 -11 -5 -27 -14 -35 -20 -40 -25 -155 -93 -174 -101 -12 -5 -28 -13 -36 -19 -24 -16 -214 -126 -230 -133 -8 -4 -22 -11 -30 -17 -38 -25 -206 -123 -225 -131 -11 -5 -27 -13 -35 -19 -56 -37 -169 -100 -179 -100 -6 0 -11 -4 -11 -9 0 -5 -12 -14 -27 -20 -16 -6 -35 -15 -43 -21 -22 -15 -213 -125 -230 -133 -8 -4 -28 -16 -45 -27 -16 -11 -37 -23 -45 -27 -8 -4 -44 -24 -79 -46 -35 -21 -74 -43 -85 -48 -12 -5 -28 -13 -36 -19 -38 -24 -206 -123 -225 -131 -11 -5 -33 -18 -50 -29 -16 -11 -37 -23 -45 -27 -8 -4 -58 -32 -110 -63 -149 -87 -146 -86 -177 -69 -32 16 -270 154 -293 169 -8 6 -24 14 -35 19 -12 5 -62 34 -111 64 -50 30 -101 58 -112 61 -12 4 -22 12 -22 17 0 5 -5 9 -11 9 -6 0 -44 19 -83 43 -39 24 -78 46 -86 50 -8 4 -28 16 -45 27 -16 11 -39 24 -50 29 -19 8 -187 107 -225 131 -8 6 -26 15 -40 21 -13 5 -27 13 -30 17 -3 4 -16 13 -30 19 -34 17 -96 53 -147 86 -24 15 -45 27 -49 27 -3 0 -50 26 -103 58 -53 32 -103 61 -111 65 -8 4 -28 16 -45 27 -16 11 -39 24 -51 29 -19 9 -138 78 -174 101 -8 6 -27 15 -42 21 -16 6 -28 15 -28 20 0 5 -5 9 -11 9 -6 0 -44 19 -83 43 -39 24 -78 46 -86 50 -8 4 -28 16 -45 27 -16 11 -39 24 -50 29 -19 8 -187 107 -225 131 -8 6 -24 14 -36 19 -11 5 -50 27 -85 48 -35 22 -71 42 -79 46 -8 4 -28 16 -45 27 -16 11 -39 24 -51 29 -19 8 -136 76 -174 101 -8 6 -26 15 -39 20 -13 6 -37 20 -53 31 -16 12 -50 33 -76 47 -72 39 -95 52 -127 72 -16 11 -39 24 -51 29 -11 5 -50 27 -85 48 -35 22 -71 42 -79 46 -8 4 -28 16 -45 27 -16 11 -39 24 -50 29 -19 8 -187 107 -225 131 -8 6 -24 14 -35 19 -12 5 -63 34 -113 65 -51 31 -95 56 -98 56 -3 0 -18 10 -34 22 l-30 22 0 2341 0 2341 30 22 c16 12 31 22 34 22 2 0 48 26 103 58 54 32 105 61 113 65 8 4 22 11 30 17 37 24 206 123 225 131 11 5 34 18 50 29 31 20 51 31 125 72 25 13 63 35 85 49 22 14 47 28 55 32 8 4 22 11 30 17 37 24 155 93 174 101 12 5 35 18 51 29 17 11 37 23 45 27 8 4 44 24 79 46 35 21 74 43 85 48 12 5 35 18 51 29 17 11 37 23 45 27 8 4 44 24 79 46 35 21 74 43 85 48 12 5 35 18 51 29 17 11 37 23 45 27 8 4 55 31 105 61 49 30 98 58 110 63 11 5 27 13 35 19 56 37 169 100 179 100 6 0 11 4 11 9 0 5 12 14 28 20 15 6 34 15 42 21 33 21 149 89 215 124 39 21 77 45 86 52 8 8 18 14 22 14 3 0 40 20 80 45 41 25 80 45 86 45 6 0 11 4 11 9 0 5 12 14 28 20 15 6 34 15 42 21 37 24 155 93 174 101 12 5 28 13 36 19 24 16 214 126 230 133 8 4 22 11 30 17 37 24 206 123 225 131 11 5 34 18 50 29 17 11 37 23 45 27 8 4 44 24 79 46 35 21 74 43 85 48 12 5 28 13 36 19 8 5 74 44 145 85 72 42 137 80 145 85 24 14 36 12 97 -22z"/> <path d="M2392 8033 c-80 -39 -141 -113 -163 -199 -17 -64 -17 -73 -2 -134 8 -36 22 -72 29 -81 8 -8 14 -19 14 -22 0 -4 8 -15 18 -24 48 -48 103 -81 161 -97 61 -17 68 -17 130 -1 36 10 80 28 98 41 49 37 103 97 103 116 0 29 31 38 98 27 34 -5 90 -13 123 -18 34 -6 67 -15 72 -20 6 -6 21 -11 34 -11 22 0 42 -7 143 -54 122 -57 258 -149 362 -245 114 -106 298 -328 298 -360 0 -6 -17 -11 -37 -11 -106 0 -291 -35 -401 -75 -38 -14 -55 -21 -102 -46 -8 -4 -35 -18 -60 -30 -25 -13 -47 -25 -50 -28 -12 -14 -67 -49 -88 -55 -16 -6 -24 -3 -29 11 -7 20 -108 156 -161 218 -115 134 -309 303 -437 382 -75 46 -294 143 -322 143 -6 0 -24 5 -40 12 -35 15 -155 36 -250 44 l-73 7 -22 44 c-55 110 -144 163 -272 163 -71 0 -87 -4 -132 -29 -57 -33 -104 -83 -134 -141 -26 -51 -28 -185 -4 -233 26 -50 83 -116 123 -141 138 -88 335 -34 414 113 l18 34 62 -7 c143 -15 280 -45 301 -66 5 -5 19 -10 29 -10 17 0 49 -14 97 -41 8 -5 22 -12 30 -16 33 -14 180 -105 180 -111 0 -4 17 -17 38 -30 106 -65 422 -435 422 -494 0 -6 -11 -23 -24 -37 -79 -85 -181 -276 -219 -411 -36 -129 -47 -208 -47 -338 0 -130 9 -189 47 -322 28 -98 91 -231 152 -320 54 -80 227 -254 301 -302 85 -55 222 -128 242 -128 5 0 24 -6 41 -14 159 -67 441 -83 622 -34 22 6 56 14 75 19 67 14 149 50 260 111 178 98 362 296 458 493 42 88 72 178 97 295 30 137 11 461 -31 542 -8 14 -14 33 -14 42 0 24 -32 94 -87 191 -12 22 -26 47 -30 55 -24 53 -165 212 -249 280 -30 24 -102 74 -136 95 -60 35 -164 85 -177 85 -9 0 -26 6 -37 14 -11 8 -33 16 -49 18 -26 3 -46 24 -72 78 -9 19 -80 123 -150 218 -64 88 -306 332 -373 377 -25 17 -46 33 -48 38 -2 4 -8 7 -13 7 -9 0 -65 36 -79 50 -8 9 -192 96 -235 112 -113 43 -276 78 -357 78 -68 0 -98 14 -98 46 0 20 -117 134 -138 134 -10 0 -27 7 -38 15 -33 25 -149 19 -212 -12z"/> <path d="M5775 7226 c-67 -7 -126 -16 -133 -20 -7 -4 -33 -11 -60 -16 -130 -25 -180 -51 -206 -109 -17 -37 -17 -40 3 -79 21 -42 63 -72 100 -72 11 0 46 7 78 16 102 28 223 50 328 60 62 6 134 0 310 -26 66 -10 178 -40 189 -51 6 -5 19 -9 29 -9 10 0 33 -7 50 -16 18 -9 39 -20 47 -25 122 -63 162 -87 231 -140 45 -34 110 -90 144 -123 79 -78 201 -243 244 -332 19 -38 40 -81 47 -96 8 -14 14 -33 14 -41 0 -8 7 -28 15 -43 8 -16 15 -36 15 -45 0 -9 7 -33 15 -52 8 -20 15 -49 15 -65 0 -43 31 -124 54 -144 14 -11 39 -17 72 -18 44 0 54 4 83 34 32 33 33 36 28 97 -7 86 -24 159 -58 250 -16 42 -29 80 -29 85 0 5 -13 36 -29 69 -16 33 -32 67 -35 75 -4 8 -12 24 -19 35 -7 11 -25 43 -41 70 -68 116 -211 281 -320 368 -21 18 -53 43 -70 57 -28 23 -87 64 -141 97 -119 74 -316 150 -480 186 -59 14 -329 40 -360 36 -6 -1 -64 -7 -130 -13z"/> <path d="M5785 6774 c-162 -23 -231 -48 -258 -94 -36 -60 -12 -132 55 -165 35 -17 43 -17 76 -5 20 7 56 17 80 22 23 4 63 12 90 17 90 18 179 13 337 -19 50 -10 127 -38 139 -51 6 -5 17 -9 26 -9 10 0 36 -13 58 -30 23 -16 45 -30 48 -30 19 0 155 -123 209 -190 35 -42 95 -147 95 -164 0 -9 4 -16 9 -16 9 0 37 -71 50 -130 41 -173 56 -195 136 -195 46 0 59 4 82 28 26 25 28 33 27 99 -3 128 -66 291 -179 463 -166 252 -475 440 -780 475 -111 12 -184 11 -300 -6z"/> <path d="M5885 6344 c-11 -2 -45 -9 -75 -15 -111 -22 -149 -57 -150 -136 0 -47 3 -54 37 -82 43 -35 64 -38 134 -15 55 18 207 16 244 -3 11 -6 42 -21 69 -33 83 -39 171 -126 201 -200 4 -8 13 -30 21 -48 8 -18 14 -44 14 -59 0 -57 60 -113 122 -113 35 0 78 30 98 70 19 38 20 42 4 102 -59 224 -184 379 -379 467 -81 37 -86 39 -175 55 -82 16 -124 18 -165 10z"/> <path d="M5340 5898 c0 -2 -2 -79 -4 -173 -3 -105 -10 -191 -19 -225 -8 -30 -18 -74 -22 -97 -4 -24 -11 -45 -16 -49 -5 -3 -9 -14 -9 -24 0 -19 -10 -46 -56 -147 -13 -29 -29 -62 -34 -75 -6 -13 -19 -36 -30 -53 -11 -16 -25 -41 -30 -55 -6 -13 -14 -27 -18 -30 -4 -3 -25 -32 -47 -65 -38 -57 -189 -215 -251 -263 -97 -75 -174 -124 -261 -167 -54 -26 -110 -54 -125 -61 -14 -8 -33 -14 -41 -14 -8 0 -28 -7 -43 -15 -16 -8 -37 -15 -48 -15 -10 0 -39 -7 -65 -15 -78 -24 -241 -45 -351 -45 -130 0 -280 24 -415 66 -27 9 -66 18 -86 21 -35 5 -36 4 -42 -34 -29 -170 25 -563 97 -712 12 -26 84 -51 301 -105 91 -22 335 -46 470 -46 200 0 475 43 650 102 17 5 45 14 64 18 18 5 38 13 44 19 6 6 19 11 29 11 16 0 119 43 168 70 8 5 42 23 75 40 34 16 85 46 114 65 29 19 55 35 58 35 5 0 147 106 198 149 89 75 264 264 321 346 11 16 39 57 62 90 22 34 64 108 92 165 28 58 55 112 59 120 5 9 12 30 15 48 4 17 12 34 17 37 5 4 9 15 9 25 0 10 5 31 12 47 16 38 37 126 48 198 5 33 13 80 19 105 6 25 11 84 11 131 l0 85 -52 50 c-29 27 -75 67 -103 89 -27 22 -61 50 -75 62 -14 13 -28 23 -32 23 -4 0 -27 13 -51 29 -24 17 -75 46 -113 66 -38 20 -76 40 -84 44 -8 4 -31 15 -50 23 -19 8 -51 22 -70 30 -19 9 -50 19 -67 22 -18 4 -35 12 -38 17 -4 5 -20 9 -36 9 -16 0 -46 7 -66 15 -30 13 -83 21 -83 13z"/> <path d="M6656 4638 c-3 -7 -12 -40 -21 -73 -18 -63 -36 -116 -62 -175 -68 -159 -91 -205 -127 -259 -20 -29 -36 -55 -36 -57 0 -11 -97 -143 -162 -220 -111 -130 -270 -278 -383 -354 -169 -113 -157 -107 -287 -172 -100 -50 -206 -98 -218 -98 -5 0 -24 -6 -42 -14 -32 -13 -88 -30 -200 -60 -109 -29 -155 -39 -223 -46 -38 -4 -110 -13 -160 -20 -144 -20 -366 -8 -585 31 -30 5 -75 13 -100 18 -25 4 -55 13 -67 19 -12 7 -33 12 -46 12 -13 0 -55 12 -93 26 -38 14 -78 28 -89 31 -19 4 -67 25 -107 45 -39 19 -20 -20 59 -122 39 -50 199 -208 258 -255 54 -43 203 -145 212 -145 3 0 28 -13 55 -30 26 -16 54 -30 62 -30 7 0 19 -7 26 -15 7 -8 19 -15 27 -15 8 0 29 -6 46 -14 143 -61 300 -99 490 -117 221 -21 510 15 700 87 20 8 56 21 80 30 23 9 49 20 57 25 8 5 22 12 30 15 35 14 88 41 125 64 73 45 80 49 95 56 8 4 17 10 20 13 3 3 25 20 50 36 86 58 400 386 400 418 0 3 16 29 35 59 31 45 70 121 130 253 8 17 17 42 21 58 3 15 10 30 15 33 5 3 9 16 9 30 0 14 5 35 11 46 30 55 68 327 69 483 0 184 -53 472 -74 403z"/> <path d="M6285 2854 c-44 -30 -108 -74 -142 -97 -35 -23 -63 -46 -63 -52 0 -5 23 -26 51 -45 28 -19 56 -40 62 -45 7 -6 71 -55 142 -110 127 -98 165 -127 191 -152 33 -33 47 10 20 64 -8 15 -29 75 -46 133 -18 58 -39 120 -46 138 -8 18 -14 39 -14 47 0 8 -6 29 -14 47 -8 18 -17 45 -20 59 -3 15 -14 36 -23 48 l-18 21 -80 -56z"/> </g> </svg> 